<mxfile host="Electron" agent="Mozilla/5.0 (Windows NT 10.0; Win64; x64) AppleWebKit/537.36 (KHTML, like Gecko) draw.io/28.1.2 Chrome/138.0.7204.243 Electron/37.4.0 Safari/537.36" version="28.1.2">
  <diagram name="Page-1" id="wx6Rqg3q42Kh179mLI8R">
    <mxGraphModel dx="1042" dy="674" grid="0" gridSize="10" guides="1" tooltips="1" connect="1" arrows="1" fold="1" page="1" pageScale="1" pageWidth="850" pageHeight="1100" math="0" shadow="0">
      <root>
        <mxCell id="0" />
        <mxCell id="1" parent="0" />
        <mxCell id="V9_SVssJ2BIRexwQSgbK-1" value="VectorPayload256" style="rounded=1;whiteSpace=wrap;html=1;" vertex="1" parent="1">
          <mxGeometry x="327" y="287" width="208" height="34" as="geometry" />
        </mxCell>
        <mxCell id="V9_SVssJ2BIRexwQSgbK-2" value="" style="endArrow=classic;html=1;rounded=0;entryX=0.132;entryY=0.1;entryDx=0;entryDy=0;entryPerimeter=0;" edge="1" parent="1">
          <mxGeometry width="50" height="50" relative="1" as="geometry">
            <mxPoint x="350" y="230" as="sourcePoint" />
            <mxPoint x="349.4559999999999" y="290.4" as="targetPoint" />
          </mxGeometry>
        </mxCell>
        <mxCell id="V9_SVssJ2BIRexwQSgbK-3" value="" style="endArrow=classic;html=1;rounded=0;entryX=0.132;entryY=0.1;entryDx=0;entryDy=0;entryPerimeter=0;" edge="1" parent="1">
          <mxGeometry width="50" height="50" relative="1" as="geometry">
            <mxPoint x="370" y="229" as="sourcePoint" />
            <mxPoint x="369" y="289" as="targetPoint" />
          </mxGeometry>
        </mxCell>
        <mxCell id="V9_SVssJ2BIRexwQSgbK-4" value="" style="endArrow=classic;html=1;rounded=0;entryX=0.132;entryY=0.1;entryDx=0;entryDy=0;entryPerimeter=0;" edge="1" parent="1">
          <mxGeometry width="50" height="50" relative="1" as="geometry">
            <mxPoint x="390" y="228" as="sourcePoint" />
            <mxPoint x="389" y="288" as="targetPoint" />
          </mxGeometry>
        </mxCell>
        <mxCell id="V9_SVssJ2BIRexwQSgbK-5" value="" style="endArrow=classic;html=1;rounded=0;entryX=0.132;entryY=0.1;entryDx=0;entryDy=0;entryPerimeter=0;" edge="1" parent="1">
          <mxGeometry width="50" height="50" relative="1" as="geometry">
            <mxPoint x="412" y="228" as="sourcePoint" />
            <mxPoint x="411" y="288" as="targetPoint" />
          </mxGeometry>
        </mxCell>
        <mxCell id="V9_SVssJ2BIRexwQSgbK-6" value="" style="endArrow=classic;html=1;rounded=0;entryX=0.132;entryY=0.1;entryDx=0;entryDy=0;entryPerimeter=0;" edge="1" parent="1">
          <mxGeometry width="50" height="50" relative="1" as="geometry">
            <mxPoint x="436" y="228" as="sourcePoint" />
            <mxPoint x="435" y="288" as="targetPoint" />
          </mxGeometry>
        </mxCell>
        <mxCell id="V9_SVssJ2BIRexwQSgbK-7" value="" style="endArrow=classic;html=1;rounded=0;entryX=0.132;entryY=0.1;entryDx=0;entryDy=0;entryPerimeter=0;" edge="1" parent="1">
          <mxGeometry width="50" height="50" relative="1" as="geometry">
            <mxPoint x="457" y="227" as="sourcePoint" />
            <mxPoint x="456" y="287" as="targetPoint" />
          </mxGeometry>
        </mxCell>
        <mxCell id="V9_SVssJ2BIRexwQSgbK-8" value="" style="endArrow=classic;html=1;rounded=0;entryX=0.132;entryY=0.1;entryDx=0;entryDy=0;entryPerimeter=0;" edge="1" parent="1">
          <mxGeometry width="50" height="50" relative="1" as="geometry">
            <mxPoint x="484" y="229" as="sourcePoint" />
            <mxPoint x="483" y="289" as="targetPoint" />
          </mxGeometry>
        </mxCell>
        <mxCell id="V9_SVssJ2BIRexwQSgbK-9" value="" style="endArrow=classic;html=1;rounded=0;entryX=0.132;entryY=0.1;entryDx=0;entryDy=0;entryPerimeter=0;" edge="1" parent="1">
          <mxGeometry width="50" height="50" relative="1" as="geometry">
            <mxPoint x="508" y="227" as="sourcePoint" />
            <mxPoint x="507" y="287" as="targetPoint" />
          </mxGeometry>
        </mxCell>
        <mxCell id="V9_SVssJ2BIRexwQSgbK-13" style="edgeStyle=orthogonalEdgeStyle;rounded=0;orthogonalLoop=1;jettySize=auto;html=1;exitX=0.5;exitY=1;exitDx=0;exitDy=0;" edge="1" parent="1" source="V9_SVssJ2BIRexwQSgbK-10">
          <mxGeometry relative="1" as="geometry">
            <mxPoint x="492" y="216.00003051757812" as="targetPoint" />
          </mxGeometry>
        </mxCell>
        <mxCell id="V9_SVssJ2BIRexwQSgbK-10" value="LoadVector (TypeVect)" style="rounded=1;whiteSpace=wrap;html=1;" vertex="1" parent="1">
          <mxGeometry x="421" y="159" width="142" height="34" as="geometry" />
        </mxCell>
        <mxCell id="V9_SVssJ2BIRexwQSgbK-12" style="edgeStyle=orthogonalEdgeStyle;rounded=0;orthogonalLoop=1;jettySize=auto;html=1;exitX=0.5;exitY=1;exitDx=0;exitDy=0;" edge="1" parent="1" source="V9_SVssJ2BIRexwQSgbK-11">
          <mxGeometry relative="1" as="geometry">
            <mxPoint x="490.800048828125" y="156.80001831054688" as="targetPoint" />
          </mxGeometry>
        </mxCell>
        <mxCell id="V9_SVssJ2BIRexwQSgbK-11" value="Array" style="shape=process;whiteSpace=wrap;html=1;backgroundOutline=1;" vertex="1" parent="1">
          <mxGeometry x="399" y="57" width="369" height="34" as="geometry" />
        </mxCell>
        <mxCell id="V9_SVssJ2BIRexwQSgbK-21" style="edgeStyle=orthogonalEdgeStyle;rounded=0;orthogonalLoop=1;jettySize=auto;html=1;exitX=0.5;exitY=1;exitDx=0;exitDy=0;" edge="1" parent="1" source="V9_SVssJ2BIRexwQSgbK-15">
          <mxGeometry relative="1" as="geometry">
            <mxPoint x="308" y="578.4000244140625" as="targetPoint" />
          </mxGeometry>
        </mxCell>
        <mxCell id="V9_SVssJ2BIRexwQSgbK-15" value="LoadVector (TypeVect)" style="rounded=1;whiteSpace=wrap;html=1;" vertex="1" parent="1">
          <mxGeometry x="237" y="505" width="142" height="34" as="geometry" />
        </mxCell>
        <mxCell id="V9_SVssJ2BIRexwQSgbK-16" style="edgeStyle=orthogonalEdgeStyle;rounded=0;orthogonalLoop=1;jettySize=auto;html=1;exitX=0.5;exitY=1;exitDx=0;exitDy=0;" edge="1" source="V9_SVssJ2BIRexwQSgbK-17" parent="1">
          <mxGeometry relative="1" as="geometry">
            <mxPoint x="306.800048828125" y="502.8000183105469" as="targetPoint" />
          </mxGeometry>
        </mxCell>
        <mxCell id="V9_SVssJ2BIRexwQSgbK-17" value="Array" style="shape=process;whiteSpace=wrap;html=1;backgroundOutline=1;" vertex="1" parent="1">
          <mxGeometry x="215" y="403" width="369" height="34" as="geometry" />
        </mxCell>
        <mxCell id="V9_SVssJ2BIRexwQSgbK-22" style="edgeStyle=orthogonalEdgeStyle;rounded=0;orthogonalLoop=1;jettySize=auto;html=1;exitX=0.5;exitY=1;exitDx=0;exitDy=0;entryX=0.5;entryY=0;entryDx=0;entryDy=0;" edge="1" parent="1" source="V9_SVssJ2BIRexwQSgbK-18" target="V9_SVssJ2BIRexwQSgbK-19">
          <mxGeometry relative="1" as="geometry" />
        </mxCell>
        <mxCell id="V9_SVssJ2BIRexwQSgbK-18" value="VectorPayloadMF256" style="rounded=1;whiteSpace=wrap;html=1;" vertex="1" parent="1">
          <mxGeometry x="232" y="579" width="142" height="42" as="geometry" />
        </mxCell>
        <mxCell id="V9_SVssJ2BIRexwQSgbK-19" value="Float256Vector" style="rounded=1;whiteSpace=wrap;html=1;" vertex="1" parent="1">
          <mxGeometry x="232" y="657" width="142" height="42" as="geometry" />
        </mxCell>
      </root>
    </mxGraphModel>
  </diagram>
</mxfile>
